<svg width="32" height="32" viewBox="0 0 32 32" fill="none" xmlns="http://www.w3.org/2000/svg">
<circle cx="16" cy="16" r="16" fill="#1A1A21"/>
<path d="M12.3848 15.794L12.4087 15.5818C12.3907 15.5798 12.3722 15.58 12.3541 15.5826L12.3848 15.794ZM10.949 15.8578C10.9866 16.0054 10.966 15.9613 11.0038 16.0732C11.0419 16.1851 11.0423 16.2147 11.0586 16.2886L10.949 15.8578ZM27.7883 9.57077C27.8307 9.49856 27.8672 9.12239 27.8672 9.12239C27.7717 9.06817 27.6499 9.09283 27.5841 9.17976C27.5841 9.17976 27.7518 9.50961 27.7883 9.57077ZM7.70921 8.21356L7.82857 8.03513C7.72897 7.97078 7.59502 7.99729 7.52867 8.09455L7.70921 8.21356ZM11.6237 15.9007L11.593 15.6894C11.58 15.6912 11.5673 15.6941 11.5549 15.6982L11.6237 15.9007ZM13.3634 15.9007L13.4163 15.6936C13.4067 15.6913 13.3971 15.6896 13.3874 15.6885L13.3634 15.9007ZM29.6737 10.6405C29.7777 10.6995 29.9108 10.6646 29.9708 10.5625C30.0308 10.4603 29.9954 10.3298 29.8912 10.2707L29.6737 10.6405ZM9.2841 9.4857C9.3844 9.55048 9.51921 9.52312 9.58534 9.42458C9.6512 9.32603 9.62333 9.19363 9.52289 9.12884L9.2841 9.4857ZM23.3312 15.5414L27.7883 9.57077C27.6744 9.38569 27.5841 9.17976 27.5841 9.17976L23.1415 15.0599L23.3312 15.5414ZM4.86257 12.7482L7.8897 8.33256L7.52867 8.09455L4.01656 13.0402L4.86257 12.7482ZM11.0586 16.2886L11.6924 16.1033L11.6427 15.8963L11.5549 15.6982L10.949 15.8578L11.0586 16.2886ZM11.6924 16.1033L12.3848 16.0088V15.794L12.3541 15.5826L11.593 15.6894L11.6924 16.1033ZM12.3848 16.0088L13.3106 16.1079L13.3874 15.6885L12.4087 15.5818L12.3848 15.794V16.0088ZM13.3106 16.1079L13.7456 16.2147L13.7717 16.1343L13.8512 15.8003L13.4163 15.6936L13.3106 16.1079ZM13.7456 16.2147L13.7978 16.0539L13.8756 15.8162L13.8512 15.8003L13.7717 16.1343L13.7456 16.2147ZM29.8912 10.2707L27.8672 9.12239C27.8672 9.12239 27.8307 9.49856 27.7883 9.57077C27.7128 9.52795 27.6497 9.49216 27.6497 9.49216L29.6737 10.6405L29.8912 10.2707ZM9.52289 9.12884L7.82857 8.03513L7.70921 8.21356L7.8897 8.33256L7.78537 8.48474L9.2841 9.4857L9.52289 9.12884ZM3.1136 14.0582L2.8535 13.7159L2.85111 13.7176L3.1136 14.0582ZM9.62601 14.2568L9.30588 14.5459C9.308 14.5481 9.30998 14.5503 9.31218 14.5525L9.62601 14.2568ZM10.435 15.6866L10.0233 15.8242C10.0242 15.8268 10.025 15.8293 10.0259 15.8319L10.435 15.6866ZM2.60798 22.0413L2.28569 22.3281C2.28721 22.3299 2.28895 22.3315 2.29047 22.3333L2.60798 22.0413ZM14.2333 16.1143L14.6496 16.2384C14.6521 16.23 14.6543 16.2214 14.6565 16.2129L14.2333 16.1143ZM15.6008 14.0582L15.3407 13.7159L15.3383 13.7176L15.6008 14.0582ZM22.1131 14.2568L21.7931 14.5459C21.7952 14.5481 21.7974 14.5503 21.7994 14.5525L22.1131 14.2568ZM22.9222 15.6866L22.5104 15.8242C22.5114 15.8268 22.5122 15.8293 22.5131 15.8319L22.9222 15.6866ZM15.0951 22.0413L14.7729 22.3281C14.7746 22.3299 14.7761 22.3315 14.7776 22.3333L15.0951 22.0413ZM1.86988 18.2881C1.86988 17.3376 2.01842 16.5356 2.30134 15.8712L1.49888 15.5416C1.16158 16.3336 1 17.2527 1 18.2881H1.86988ZM2.30134 15.8712C2.59015 15.1933 2.95354 14.7127 3.37608 14.3987L2.85111 13.7176C2.2759 14.1451 1.8303 14.7634 1.49888 15.5416L2.30134 15.8712ZM3.37369 14.4004C4.26141 13.7499 5.20937 13.4327 6.22823 13.4327V12.5786C5.00884 12.5786 3.8804 12.9631 2.8535 13.7159L3.37369 14.4004ZM6.22823 13.4327C7.00783 13.4327 7.63721 13.5523 8.13216 13.7721L8.49056 12.9939C7.85293 12.7106 7.09352 12.5786 6.22823 12.5786V13.4327ZM8.13216 13.7721C8.663 14.0079 9.04686 14.2694 9.30588 14.5459L9.94615 13.9676C9.58492 13.5822 9.09234 13.2612 8.49056 12.9939L8.13216 13.7721ZM9.31218 14.5525C9.57707 14.8233 9.81975 15.2374 10.0233 15.8242L10.8466 15.5489C10.6187 14.8913 10.3221 14.3521 9.93978 13.961L9.31218 14.5525ZM10.0259 15.8319C10.2342 16.3971 10.3439 17.0742 10.3439 17.871H11.2137C11.2137 16.9998 11.0941 16.2205 10.844 15.5414L10.0259 15.8319ZM10.3439 17.871C10.3439 19.5761 9.90392 20.8035 9.09142 21.6246L9.71556 22.2198C10.7368 21.1874 11.2137 19.714 11.2137 17.871H10.3439ZM9.09142 21.6246C8.27787 22.4472 7.23489 22.8654 5.92486 22.8654V23.7195C7.44628 23.7195 8.72242 23.2241 9.71556 22.2198L9.09142 21.6246ZM5.92486 22.8654C4.60132 22.8654 3.62139 22.479 2.92549 21.7494L2.29047 22.3333C3.18558 23.2718 4.4169 23.7195 5.92486 23.7195V22.8654ZM2.93027 21.7546C2.24741 21.0147 1.86988 19.8838 1.86988 18.2881H1C1 20.0022 1.40449 21.3734 2.28569 22.3281L2.93027 21.7546ZM14.357 18.2881C14.357 17.5492 14.4723 16.811 14.6496 16.2384L13.8171 15.9902C13.6135 16.6485 13.4872 17.4708 13.4872 18.2881H14.357ZM14.2333 16.1143C14.6565 16.2129 14.6565 16.2129 14.6565 16.2129L14.6561 16.2143L14.6559 16.2156L14.6555 16.2176L14.6548 16.2195C14.6548 16.2195 14.6552 16.2169 14.6565 16.2129C14.6589 16.2047 14.6643 16.1888 14.6737 16.1619C14.6924 16.1079 14.7274 16.0147 14.7885 15.8712L13.9861 15.5416C13.9191 15.6992 13.8769 15.8099 13.8508 15.8847C13.8377 15.9221 13.8286 15.9508 13.8221 15.972C13.8191 15.9827 13.8164 15.9915 13.8145 15.9987C13.8136 16.0024 13.8128 16.0056 13.8118 16.0084L13.811 16.0123L13.8105 16.0141L13.8171 15.9902C13.8171 15.9902 13.8101 16.0157 14.2333 16.1143ZM14.7885 15.8712C15.0773 15.1933 15.4407 14.7127 15.8633 14.3987L15.3383 13.7176C14.7631 14.1451 14.3175 14.7634 13.9861 15.5416L14.7885 15.8712ZM15.8611 14.4004C16.7486 13.7499 17.6965 13.4327 18.7154 13.4327V12.5786C17.496 12.5786 16.3678 12.9631 15.3407 13.7159L15.8611 14.4004ZM18.7154 13.4327C19.4951 13.4327 20.1244 13.5523 20.6193 13.7721L20.978 12.9939C20.3401 12.7106 19.5807 12.5786 18.7154 12.5786V13.4327ZM20.6193 13.7721C21.1502 14.0079 21.534 14.2694 21.7931 14.5459L22.4333 13.9676C22.072 13.5822 21.5795 13.2612 20.978 12.9939L20.6193 13.7721ZM21.7994 14.5525C22.0642 14.8233 22.3069 15.2374 22.5104 15.8242L23.3338 15.5489C23.1059 14.8913 22.8093 14.3521 22.427 13.961L21.7994 14.5525ZM22.5131 15.8319C22.7214 16.3971 22.8311 17.0742 22.8311 17.871H23.7009C23.7009 16.9998 23.5813 16.2205 23.3312 15.5414L22.5131 15.8319ZM22.8311 17.871C22.8311 19.5761 22.3911 20.8035 21.5788 21.6246L22.2027 22.2198C23.224 21.1874 23.7009 19.7139 23.7009 17.871H22.8311ZM21.5788 21.6246C20.7655 22.4472 19.722 22.8654 18.412 22.8654V23.7195C19.9335 23.7195 21.2095 23.2241 22.2027 22.2198L21.5788 21.6246ZM18.412 22.8654C17.0885 22.8654 16.1086 22.479 15.4126 21.7494L14.7776 22.3333C15.6728 23.2718 16.9041 23.7195 18.412 23.7195V22.8654ZM15.4175 21.7546C14.7346 21.0147 14.357 19.8838 14.357 18.2881H13.4872C13.4872 20.0022 13.8916 21.3734 14.7729 22.3281L15.4175 21.7546Z" fill="#008470"/>
<path d="M3.87283 14.5476C4.53036 13.9808 5.31071 13.6632 6.08369 13.6477C6.12615 13.6469 6.16861 13.6493 6.21067 13.6548L7.03795 13.7632C8.76083 13.9889 9.05974 17.2746 7.45361 16.6634C6.22011 16.1939 5.84025 16.0494 5.84025 16.0494C5.08756 15.7629 4.29711 16.3007 3.94185 17.2007C3.71383 17.7783 3.4372 18.4791 3.13207 19.2521C3.05933 19.4364 2.98569 19.5832 2.91186 19.6979C1.9551 21.1833 1.85268 17.6531 2.70468 16.0968L2.86724 15.7999C3.13074 15.3186 3.47322 14.8921 3.87283 14.5476Z" fill="white"/>
<path d="M16.2687 14.5476C16.9262 13.9808 17.7065 13.6632 18.4795 13.6477C18.522 13.6469 18.5645 13.6493 18.6065 13.6548L19.4338 13.7632C21.1567 13.9889 21.4555 17.2746 19.8494 16.6634C18.6159 16.1939 18.236 16.0494 18.236 16.0494C17.4834 15.7629 16.693 16.3007 16.3377 17.2007C16.1096 17.7783 15.833 18.4791 15.5279 19.2521C15.4552 19.4364 15.3815 19.5832 15.3077 19.6979C14.351 21.1833 14.2485 17.6531 15.1005 16.0968L15.2631 15.7999C15.5265 15.3186 15.8691 14.8921 16.2687 14.5476Z" fill="white"/>
</svg>
