<svg width="65" height="59" viewBox="0 0 65 59" fill="none" xmlns="http://www.w3.org/2000/svg">
<path d="M8.84896 59C6.01889 59 3.82658 58.2044 2.27203 56.6131C0.757344 55.0626 0 52.9817 0 50.3703C0 48.167 0.657693 46.2493 1.97308 44.6172C3.28847 42.9851 5.06225 42.1691 7.29442 42.1691C9.00841 42.1691 10.4035 42.4343 11.4797 42.9647C12.5958 43.4544 13.1539 44.556 13.1539 46.2697C13.1539 47.0042 13.0343 47.8202 12.7951 48.7178C12.0776 48.1058 11.4598 47.6774 10.9416 47.4326C10.4234 47.2286 9.84547 47.1266 9.20771 47.1266C7.89232 47.1266 6.85595 47.5754 6.09861 48.473C5.38113 49.3707 5.02239 50.4315 5.02239 51.6556C5.02239 53.0837 5.44092 54.1445 6.27798 54.8382C7.11505 55.5726 8.05176 55.9398 9.08813 55.9398C10.0448 55.9398 10.842 55.7358 11.4797 55.3278C12.1574 54.9606 12.7553 54.2261 13.2734 53.1245C13.7916 52.0636 14.2899 50.4927 14.7682 48.4118L24.1553 4.71266C21.4846 5.81431 19.4119 7.50761 17.9371 9.79253C16.4623 12.0775 15.7248 14.852 15.7248 18.1162C15.7248 19.6259 15.8644 20.6867 16.1434 21.2988C16.4224 21.87 16.5619 22.1964 16.5619 22.278C14.4095 22.278 12.7951 21.8292 11.7189 20.9315C10.6825 19.9931 10.1644 18.463 10.1644 16.3413C10.1644 13.7299 11.2007 11.2002 13.2734 8.75208C15.386 6.26314 18.0766 4.26383 21.3451 2.75415C24.6137 1.20366 27.8822 0.428421 31.1508 0.428421H33.5424L24.5738 43.8828C23.5374 48.9015 21.8235 52.6757 19.4318 55.2054C17.0402 57.7351 13.5126 59 8.84896 59Z" fill="#04CFB1"/>
<path d="M44.8507 59C41.9409 59 39.5891 58.2248 37.7954 56.6743C36.0416 55.1646 35.1646 53.1653 35.1646 50.6763C35.1646 49.1259 35.5234 47.6978 36.2409 46.3921C36.9583 45.0864 37.9349 44.0664 39.1706 43.332C40.4063 42.5567 41.7615 42.1691 43.2363 42.1691C44.751 42.1691 45.9668 42.5567 46.8835 43.332C47.8402 44.1072 48.3185 45.1272 48.3185 46.3921C48.3185 47.3714 48.0993 48.1466 47.6608 48.7178C47.3021 48.2282 46.8038 47.8406 46.1661 47.555C45.5681 47.2694 44.9304 47.1266 44.2528 47.1266C43.057 47.1266 42.0804 47.5346 41.323 48.3506C40.5657 49.1667 40.187 50.2275 40.187 51.5332C40.187 52.8389 40.5458 53.8997 41.2632 54.7158C42.0206 55.5318 42.9573 55.9398 44.0734 55.9398C45.4685 55.9398 46.6643 55.3074 47.6608 54.0425C48.6573 52.7777 49.4147 50.9008 49.9328 48.4118L52.9224 34.8859H52.6832C51.607 36.4364 50.2916 37.6196 48.737 38.4357C47.2224 39.2517 45.5482 39.6598 43.7147 39.6598C41.4028 39.6598 39.3699 39.0273 37.616 37.7625C35.8622 36.4976 34.5069 34.7023 33.5503 32.3766C32.6335 30.01 32.1751 27.2763 32.1751 24.1753C32.1751 19.6871 33.1318 15.6068 35.0451 11.9346C36.9583 8.22164 39.5891 5.30429 42.9374 3.18257C46.2856 1.06086 49.9727 0 53.9986 0C57.3867 0 60.0573 0.754841 62.0105 2.26452C64.0035 3.7742 65 5.83472 65 8.44606C65 10.2006 64.5815 11.6082 63.7444 12.6691C62.9073 13.7299 61.8112 14.2604 60.4559 14.2604C59.6986 14.2604 58.9811 14.0972 58.3035 13.7707C57.6657 13.4443 57.1276 12.9751 56.6891 12.3631C57.4066 11.8734 58.0045 11.0982 58.4829 10.0373C59.001 8.93569 59.2601 7.83403 59.2601 6.73237C59.2601 5.5083 58.9014 4.56985 58.1839 3.91701C57.5063 3.22337 56.5297 2.87656 55.2542 2.87656C52.9423 2.87656 50.7101 3.93741 48.5577 6.05913C46.4052 8.14004 44.6713 10.8738 43.3559 14.2604C42.0405 17.647 41.3828 21.1968 41.3828 24.9098C41.3828 27.9699 41.8612 30.316 42.8178 31.9481C43.7744 33.5394 45.1496 34.3351 46.9433 34.3351C49.0958 34.3351 50.9891 33.1722 52.6234 30.8465C54.2975 28.5207 55.6329 25.1342 56.6294 20.6867L63.6846 20.7479L59.3199 41.3122C58.0444 47.3918 56.2308 51.8596 53.879 54.7158C51.5671 57.5719 48.5577 59 44.8507 59Z" fill="#04CFB1"/>
</svg>
