<svg width="173" height="64" viewBox="0 0 173 64" fill="none" xmlns="http://www.w3.org/2000/svg">
<path d="M74.8168 54.4253C73.5323 54.4253 72.3989 53.9747 71.4167 53.0736C70.4722 52.1724 70 50.7456 70 48.7931V1H74.8168V48.5115C74.8168 49.1123 74.9679 49.5441 75.2701 49.8069C75.5724 50.0697 76.0824 50.2011 76.8002 50.2011H77.9335V54.4253H74.8168Z" fill="white"/>
<path d="M99.9207 45.4138C99.9207 48.5678 99.1274 50.8582 97.5406 52.2851C95.9917 53.7119 93.5739 54.4253 90.2871 54.4253H89.5505C86.2637 54.4253 83.827 53.7119 82.2403 52.2851C80.6914 50.8582 79.9169 48.5678 79.9169 45.4138V35.2759C79.9169 32.1218 80.6914 29.8314 82.2403 28.4046C83.827 26.9778 86.2637 26.2644 89.5505 26.2644H90.2871C93.5739 26.2644 95.9917 26.9778 97.5406 28.4046C99.1274 29.8314 99.9207 32.1218 99.9207 35.2759V45.4138ZM95.1039 34.1494C95.1039 32.9854 94.745 32.0843 94.0272 31.446C93.3094 30.8077 92.2516 30.4885 90.8538 30.4885H88.9838C87.586 30.4885 86.5282 30.8077 85.8104 31.446C85.0926 32.0843 84.7337 32.9854 84.7337 34.1494V46.5402C84.7337 47.7042 85.0926 48.6054 85.8104 49.2437C86.5282 49.882 87.586 50.2011 88.9838 50.2011H90.8538C92.2516 50.2011 93.3094 49.882 94.0272 49.2437C94.745 48.6054 95.1039 47.7042 95.1039 46.5402V34.1494Z" fill="white"/>
<path d="M104.463 26.2644H108.997V27.6161C110.168 26.7149 111.679 26.2644 113.53 26.2644H114.437C117.762 26.2644 120.198 26.9778 121.747 28.4046C123.296 29.7939 124.071 32.0843 124.071 35.2759V45.4138C124.071 48.5678 123.277 50.8582 121.691 52.2851C120.142 53.7119 117.724 54.4253 114.437 54.4253H109.28V64H104.463V26.2644ZM112.964 30.4885C111.717 30.4885 110.791 30.8264 110.187 31.5023C109.582 32.1406 109.28 32.8353 109.28 33.5862V50.2011H115.004C116.401 50.2011 117.459 49.882 118.177 49.2437C118.895 48.6054 119.254 47.7042 119.254 46.5402V34.1494C119.254 32.9854 118.895 32.0843 118.177 31.446C117.459 30.8077 116.401 30.4885 115.004 30.4885H112.964Z" fill="white"/>
<path d="M137.676 54.4253C134.352 54.4253 131.915 53.7306 130.366 52.3414C128.817 50.9146 128.043 48.6054 128.043 45.4138V35.2759C128.043 32.0467 128.742 29.7375 130.139 28.3483C131.537 26.959 133.861 26.2644 137.11 26.2644H138.64C141.322 26.2644 143.343 27.0153 144.703 28.5172C146.101 29.9816 146.8 32.1406 146.8 34.9943V42.3161H132.859V46.5402C132.859 47.7042 133.218 48.6054 133.936 49.2437C134.654 49.882 135.712 50.2011 137.11 50.2011H150.19V54.4253H137.676ZM142.096 38.092V33.8678C142.096 32.8916 141.775 32.0843 141.133 31.446C140.491 30.8077 139.678 30.4885 138.696 30.4885H136.543C135.183 30.4885 134.219 30.8077 133.653 31.446C133.124 32.0467 132.859 32.9479 132.859 34.1494V38.092H142.096Z" fill="white"/>
<path d="M166 47.3851C166 49.7506 165.263 51.5153 163.79 52.6793C162.354 53.8433 160.258 54.4253 157.5 54.4253H150.19V50.2011H158.066C159.087 50.2011 159.861 49.9946 160.39 49.5816C160.919 49.131 161.183 48.4927 161.183 47.6667V44.6816C161.183 42.992 160.371 42.1471 158.747 42.1471H157.783C155.139 42.1471 153.155 41.5839 151.833 40.4575C150.549 39.2935 149.906 37.4724 149.906 34.9943V33.3609C149.906 30.8452 150.624 29.0429 152.06 27.954C153.495 26.8276 155.611 26.2644 158.406 26.2644H164.867V30.4885H157.84C156.895 30.4885 156.14 30.7138 155.573 31.1644C155.006 31.5774 154.723 32.1969 154.723 33.023V35.0506C154.723 35.9142 154.969 36.5525 155.46 36.9655C155.989 37.3785 156.65 37.5851 157.443 37.5851H158.236C160.768 37.5851 162.694 38.2046 164.017 39.4437C165.339 40.6452 166 42.4475 166 44.8506V47.3851Z" fill="white"/>
<path d="M8.84896 59C6.01889 59 3.82658 58.2044 2.27203 56.6131C0.757344 55.0626 0 52.9817 0 50.3703C0 48.167 0.657693 46.2493 1.97308 44.6172C3.28847 42.9851 5.06225 42.1691 7.29442 42.1691C9.00841 42.1691 10.4035 42.4343 11.4797 42.9647C12.5958 43.4544 13.1539 44.556 13.1539 46.2697C13.1539 47.0042 13.0343 47.8202 12.7951 48.7178C12.0776 48.1058 11.4598 47.6774 10.9416 47.4326C10.4234 47.2286 9.84547 47.1266 9.20771 47.1266C7.89232 47.1266 6.85595 47.5754 6.09861 48.473C5.38113 49.3707 5.02239 50.4315 5.02239 51.6556C5.02239 53.0837 5.44092 54.1445 6.27798 54.8382C7.11505 55.5726 8.05176 55.9398 9.08813 55.9398C10.0448 55.9398 10.842 55.7358 11.4797 55.3278C12.1574 54.9606 12.7553 54.2261 13.2734 53.1245C13.7916 52.0636 14.2899 50.4927 14.7682 48.4118L24.1553 4.71266C21.4846 5.81431 19.4119 7.50761 17.9371 9.79253C16.4623 12.0775 15.7248 14.852 15.7248 18.1162C15.7248 19.6259 15.8644 20.6867 16.1434 21.2988C16.4224 21.87 16.5619 22.1964 16.5619 22.278C14.4095 22.278 12.7951 21.8292 11.7189 20.9315C10.6825 19.9931 10.1644 18.463 10.1644 16.3413C10.1644 13.7299 11.2007 11.2002 13.2734 8.75208C15.386 6.26314 18.0766 4.26383 21.3451 2.75415C24.6137 1.20366 27.8822 0.428421 31.1508 0.428421H33.5424L24.5738 43.8828C23.5374 48.9015 21.8235 52.6757 19.4318 55.2054C17.0402 57.7351 13.5126 59 8.84896 59Z" fill="#04CFB1"/>
<path d="M44.8507 59C41.9409 59 39.5891 58.2248 37.7954 56.6743C36.0416 55.1646 35.1646 53.1653 35.1646 50.6763C35.1646 49.1259 35.5234 47.6978 36.2409 46.3921C36.9583 45.0864 37.9349 44.0664 39.1706 43.332C40.4063 42.5567 41.7615 42.1691 43.2363 42.1691C44.751 42.1691 45.9668 42.5567 46.8835 43.332C47.8402 44.1072 48.3185 45.1272 48.3185 46.3921C48.3185 47.3714 48.0993 48.1466 47.6608 48.7178C47.3021 48.2282 46.8038 47.8406 46.1661 47.555C45.5682 47.2694 44.9304 47.1266 44.2528 47.1266C43.057 47.1266 42.0804 47.5346 41.323 48.3506C40.5657 49.1667 40.187 50.2275 40.187 51.5332C40.187 52.8389 40.5458 53.8997 41.2632 54.7158C42.0206 55.5318 42.9573 55.9398 44.0734 55.9398C45.4685 55.9398 46.6643 55.3074 47.6608 54.0425C48.6573 52.7777 49.4147 50.9008 49.9328 48.4118L52.9224 34.8859H52.6832C51.607 36.4364 50.2916 37.6196 48.737 38.4357C47.2224 39.2517 45.5482 39.6598 43.7147 39.6598C41.4028 39.6598 39.3699 39.0273 37.616 37.7625C35.8622 36.4976 34.5069 34.7023 33.5503 32.3766C32.6335 30.01 32.1751 27.2763 32.1751 24.1753C32.1751 19.6871 33.1318 15.6068 35.0451 11.9346C36.9583 8.22165 39.5891 5.30429 42.9374 3.18257C46.2856 1.06086 49.9727 0 53.9986 0C57.3867 0 60.0573 0.754841 62.0105 2.26452C64.0035 3.7742 65 5.83472 65 8.44606C65 10.2006 64.5815 11.6082 63.7444 12.6691C62.9073 13.7299 61.8112 14.2604 60.4559 14.2604C59.6986 14.2604 58.9811 14.0972 58.3035 13.7707C57.6657 13.4443 57.1276 12.9751 56.6891 12.3631C57.4066 11.8734 58.0045 11.0982 58.4829 10.0373C59.001 8.93569 59.2601 7.83403 59.2601 6.73237C59.2601 5.5083 58.9014 4.56985 58.1839 3.91701C57.5063 3.22337 56.5297 2.87656 55.2542 2.87656C52.9423 2.87656 50.7101 3.93741 48.5577 6.05913C46.4052 8.14004 44.6713 10.8738 43.3559 14.2604C42.0405 17.647 41.3828 21.1968 41.3828 24.9098C41.3828 27.9699 41.8611 30.316 42.8178 31.9481C43.7744 33.5394 45.1496 34.3351 46.9433 34.3351C49.0958 34.3351 50.9891 33.1722 52.6234 30.8465C54.2975 28.5207 55.6329 25.1342 56.6294 20.6867L63.6846 20.7479L59.3199 41.3122C58.0444 47.3918 56.2308 51.8596 53.879 54.7158C51.5671 57.5719 48.5577 59 44.8507 59Z" fill="#04CFB1"/>
<path d="M162.747 10.8661C162.645 11.0021 162.674 11.1944 162.81 11.2957C162.946 11.3969 163.139 11.3687 163.24 11.2327L162.747 10.8661ZM148.096 11.2039L148.13 10.8988C148.104 10.8959 148.078 10.8963 148.052 10.9L148.096 11.2039ZM145.539 11.5265C145.378 11.5802 145.291 11.754 145.344 11.9148C145.398 12.0757 145.572 12.1626 145.733 12.109L145.539 11.5265ZM169.831 1.87921L169.985 1.61343C169.85 1.53549 169.678 1.57095 169.584 1.69591L169.831 1.87921ZM141.485 0.306987L141.654 0.0504965C141.513 -0.0420031 141.324 -0.00388883 141.23 0.135921L141.485 0.306987ZM147.02 11.3573L146.976 11.0535C146.958 11.0561 146.94 11.0603 146.923 11.0661L147.02 11.3573ZM149.479 11.3573L149.554 11.0596C149.541 11.0562 149.527 11.0538 149.513 11.0522L149.479 11.3573ZM172.539 3.79572C172.686 3.88057 172.874 3.83032 172.959 3.68353C173.044 3.53675 172.993 3.34902 172.846 3.2642L172.539 3.79572ZM143.712 2.13569C143.854 2.22882 144.044 2.18948 144.138 2.04783C144.231 1.90617 144.192 1.71584 144.05 1.62271L143.712 2.13569ZM163.24 11.2327L170.078 2.06249L169.584 1.69591L162.747 10.8661L163.24 11.2327ZM136.668 8.02394L141.741 0.478052L141.23 0.135921L136.157 7.6818L136.668 8.02394ZM145.733 12.109L147.117 11.6485L146.923 11.0661L145.539 11.5265L145.733 12.109ZM147.063 11.6612L148.139 11.5077L148.052 10.9L146.976 11.0535L147.063 11.6612ZM148.062 11.509L149.445 11.6624L149.513 11.0522L148.13 10.8988L148.062 11.509ZM149.405 11.6551L150.02 11.8086L150.169 11.213L149.554 11.0596L149.405 11.6551ZM150.02 11.8086L150.634 11.9621L150.784 11.3665L150.169 11.213L150.02 11.8086ZM172.846 3.2642L169.985 1.61343L169.677 2.14498L172.539 3.79572L172.846 3.2642ZM144.05 1.62271L141.654 0.0504965L141.317 0.563476L143.712 2.13569L144.05 1.62271ZM134.988 8.70861L134.62 8.21665L134.617 8.21911L134.988 8.70861ZM144.195 8.9941L143.743 9.4097C143.746 9.41292 143.749 9.41609 143.752 9.41925L144.195 8.9941ZM145.339 11.0495L144.757 11.2473C144.758 11.251 144.76 11.2546 144.761 11.2583L145.339 11.0495ZM134.273 20.1844L133.818 20.5967C133.82 20.5992 133.822 20.6016 133.824 20.6041L134.273 20.1844ZM150.709 11.6643L151.298 11.8427C151.301 11.8306 151.304 11.8183 151.307 11.806L150.709 11.6643ZM152.642 8.70861L152.275 8.21665L152.271 8.21911L152.642 8.70861ZM161.85 8.9941L161.397 9.40976C161.4 9.41292 161.403 9.41609 161.406 9.41925L161.85 8.9941ZM162.993 11.0495L162.411 11.2473C162.413 11.251 162.414 11.2546 162.415 11.2583L162.993 11.0495ZM151.928 20.1844L151.472 20.5967C151.474 20.5992 151.477 20.6016 151.479 20.6041L151.928 20.1844ZM133.23 14.7891C133.23 13.4228 133.44 12.2699 133.84 11.3149L132.705 10.8411C132.228 11.9796 132 13.3007 132 14.7891H133.23ZM133.84 11.3149C134.248 10.3403 134.762 9.64946 135.359 9.19816L134.617 8.21911C133.804 8.83354 133.174 9.72232 132.705 10.8411L133.84 11.3149ZM135.356 9.20057C136.611 8.26544 137.951 7.80956 139.392 7.80956V6.58175C137.668 6.58175 136.072 7.1345 134.62 8.21665L135.356 9.20057ZM139.392 7.80956C140.494 7.80956 141.384 7.98137 142.083 8.29737L142.59 7.17871C141.689 6.77151 140.615 6.58175 139.392 6.58175V7.80956ZM142.083 8.29737C142.834 8.63635 143.377 9.01227 143.743 9.4097L144.648 8.57844C144.137 8.02438 143.441 7.56293 142.59 7.17871L142.083 8.29737ZM143.752 9.41925C144.126 9.8085 144.469 10.4037 144.757 11.2473L145.921 10.8516C145.599 9.9063 145.18 9.1312 144.639 8.56895L143.752 9.41925ZM144.761 11.2583C145.055 12.0709 145.21 13.0441 145.21 14.1896H146.44C146.44 12.9372 146.271 11.8169 145.917 10.8407L144.761 11.2583ZM145.21 14.1896C145.21 16.6407 144.588 18.405 143.44 19.5853L144.322 20.4409C145.766 18.9569 146.44 16.8389 146.44 14.1896H145.21ZM143.44 19.5853C142.289 20.7679 140.815 21.369 138.963 21.369V22.5968C141.114 22.5968 142.918 21.8847 144.322 20.4409L143.44 19.5853ZM138.963 21.369C137.092 21.369 135.706 20.8136 134.722 19.7648L133.824 20.6041C135.09 21.9532 136.831 22.5968 138.963 22.5968V21.369ZM134.729 19.7722C133.764 18.7086 133.23 17.0829 133.23 14.7891H132C132 17.2531 132.572 19.2242 133.818 20.5967L134.729 19.7722ZM150.884 14.7891C150.884 13.727 151.047 12.6658 151.298 11.8427L150.121 11.4859C149.833 12.4322 149.654 13.6143 149.654 14.7891H150.884ZM150.709 11.6643C151.307 11.806 151.307 11.806 151.307 11.806L151.307 11.807L151.307 11.808C151.307 11.8087 151.307 11.8099 151.307 11.8099C151.306 11.811 151.306 11.812 151.306 11.8128C151.305 11.8144 151.305 11.8155 151.305 11.8155C151.305 11.8155 151.305 11.8128 151.307 11.807C151.311 11.7952 151.319 11.7714 151.332 11.7327C151.358 11.6551 151.408 11.5212 151.494 11.3148L150.36 10.8411C150.265 11.0676 150.205 11.2268 150.168 11.3342C150.15 11.388 150.137 11.4293 150.128 11.4598C150.123 11.4751 150.12 11.4878 150.117 11.4982C150.116 11.5034 150.115 11.508 150.113 11.5121C150.113 11.5141 150.112 11.516 150.112 11.5177C150.112 11.5186 150.111 11.5194 150.111 11.5203L150.111 11.5215C150.111 11.5215 150.111 11.5226 150.709 11.6643ZM151.494 11.3148C151.902 10.3403 152.416 9.64946 153.014 9.19816L152.271 8.21911C151.458 8.83354 150.828 9.72232 150.36 10.8411L151.494 11.3148ZM153.01 9.20057C154.265 8.26544 155.605 7.80956 157.046 7.80956V6.58175C155.322 6.58175 153.727 7.1345 152.275 8.21665L153.01 9.20057ZM157.046 7.80956C158.148 7.80956 159.038 7.98137 159.738 8.29737L160.245 7.17871C159.343 6.77151 158.269 6.58175 157.046 6.58175V7.80956ZM159.738 8.29737C160.488 8.63635 161.031 9.01228 161.397 9.40976L162.302 8.57844C161.792 8.02438 161.095 7.56293 160.245 7.17871L159.738 8.29737ZM161.406 9.41925C161.78 9.8085 162.124 10.4037 162.411 11.2473L163.575 10.8516C163.253 9.9063 162.834 9.1312 162.293 8.56895L161.406 9.41925ZM162.415 11.2583C162.71 12.0709 162.865 13.0441 162.865 14.1896H164.094C164.094 12.9372 163.925 11.8169 163.572 10.8407L162.415 11.2583ZM162.865 14.1896C162.865 16.6407 162.243 18.405 161.094 19.5853L161.976 20.4409C163.42 18.9569 164.094 16.8388 164.094 14.1896H162.865ZM161.094 19.5853C159.944 20.7679 158.469 21.369 156.617 21.369V22.5968C158.768 22.5968 160.572 21.8847 161.976 20.4409L161.094 19.5853ZM156.617 21.369C154.746 21.369 153.36 20.8136 152.377 19.7648L151.479 20.6041C152.744 21.9532 154.485 22.5968 156.617 22.5968V21.369ZM152.383 19.7722C151.418 18.7086 150.884 17.0829 150.884 14.7891H149.654C149.654 17.2531 150.226 19.2242 151.472 20.5967L152.383 19.7722Z" fill="#008470"/>
<path d="M136.062 9.41216C136.991 8.59733 138.094 8.14079 139.187 8.11864C139.247 8.11744 139.307 8.12082 139.367 8.12873L140.536 8.28455C142.972 8.60906 143.395 13.3323 141.124 12.4537C139.38 11.7788 138.843 11.5711 138.843 11.571C137.779 11.1592 136.661 11.9323 136.159 13.2259C135.837 14.0563 135.446 15.0637 135.014 16.1749C134.911 16.4398 134.807 16.6509 134.703 16.8157C133.35 18.951 133.206 13.8763 134.41 11.6392L134.64 11.2124C135.012 10.5205 135.497 9.90739 136.062 9.41216Z" fill="white"/>
<path d="M153.587 9.41216C154.516 8.59733 155.62 8.14079 156.712 8.11864C156.772 8.11744 156.832 8.12082 156.892 8.12873L158.062 8.28455C160.497 8.60906 160.92 13.3323 158.649 12.4537C156.905 11.7788 156.368 11.5711 156.368 11.571C155.304 11.1592 154.187 11.9323 153.684 13.2259C153.362 14.0563 152.971 15.0637 152.539 16.1749C152.437 16.4398 152.332 16.6509 152.228 16.8157C150.875 18.951 150.731 13.8763 151.935 11.6392L152.165 11.2124C152.538 10.5205 153.022 9.90739 153.587 9.41216Z" fill="white"/>
</svg>
